<svg xmlns="http://www.w3.org/2000/svg" xmlns:xlink="http://www.w3.org/1999/xlink" width="500" zoomAndPan="magnify" viewBox="0 0 375 374.999991" height="500" preserveAspectRatio="xMidYMid meet" version="1.0"><defs><g/><clipPath id="6a4c0b1872"><path d="M 300 178 L 350.25 178 L 350.25 276.585938 L 300 276.585938 Z M 300 178 " clip-rule="nonzero"/></clipPath><clipPath id="32473f21f2"><path d="M 37.5 178 L 88 178 L 88 276.585938 L 37.5 276.585938 Z M 37.5 178 " clip-rule="nonzero"/></clipPath><clipPath id="3aa88093d8"><path d="M 231 146 L 282 146 L 282 276.585938 L 231 276.585938 Z M 231 146 " clip-rule="nonzero"/></clipPath><clipPath id="66e4492cd3"><path d="M 147 146 L 198 146 L 198 276.585938 L 147 276.585938 Z M 147 146 " clip-rule="nonzero"/></clipPath><clipPath id="f38b050da9"><path d="M 68 123 L 130 123 L 130 276.585938 L 68 276.585938 Z M 68 123 " clip-rule="nonzero"/></clipPath><clipPath id="ba7786bf1c"><path d="M 159 123 L 221 123 L 221 276.585938 L 159 276.585938 Z M 159 123 " clip-rule="nonzero"/></clipPath><clipPath id="b1c93b3da5"><path d="M 256 123 L 318 123 L 318 276.585938 L 256 276.585938 Z M 256 123 " clip-rule="nonzero"/></clipPath><clipPath id="9fa3f27029"><path d="M 123 187 L 173 187 L 173 276.585938 L 123 276.585938 Z M 123 187 " clip-rule="nonzero"/></clipPath><clipPath id="485d68031f"><path d="M 212 175 L 262 175 L 262 276.585938 L 212 276.585938 Z M 212 175 " clip-rule="nonzero"/></clipPath><clipPath id="13810e6af2"><path d="M 41 139 L 103 139 L 103 276.585938 L 41 276.585938 Z M 41 139 " clip-rule="nonzero"/></clipPath><clipPath id="0b8e5bcca5"><path d="M 129 139 L 191 139 L 191 276.585938 L 129 276.585938 Z M 129 139 " clip-rule="nonzero"/></clipPath><clipPath id="d167cec1c7"><path d="M 229 139 L 291 139 L 291 276.585938 L 229 276.585938 Z M 229 139 " clip-rule="nonzero"/></clipPath><clipPath id="597655c40a"><path d="M 96 203 L 147 203 L 147 276.585938 L 96 276.585938 Z M 96 203 " clip-rule="nonzero"/></clipPath><clipPath id="a536ac7ed5"><path d="M 185 191 L 236 191 L 236 276.585938 L 185 276.585938 Z M 185 191 " clip-rule="nonzero"/></clipPath><clipPath id="efd62a090a"><path d="M 283 195 L 333 195 L 333 276.585938 L 283 276.585938 Z M 283 195 " clip-rule="nonzero"/></clipPath></defs><g clip-path="url(#6a4c0b1872)"><path fill="#5ce1e6" d="M 308.140625 224.503906 C 309.378906 225.503906 313.917969 228.699219 314.570312 229.386719 C 315.453125 230.320312 316.261719 230.984375 317.277344 231.769531 C 318.257812 232.527344 319.148438 233.3125 320.300781 233.804688 C 320.660156 233.960938 321.015625 234.113281 321.371094 234.265625 C 321.710938 237.316406 321.71875 240.9375 321.273438 243.820312 C 321.054688 245.25 321.058594 246.574219 320.644531 247.945312 C 320.441406 248.621094 319.617188 263.613281 318.945312 276.460938 L 342.292969 276.460938 C 341.976562 262.523438 341.59375 245.320312 341.53125 242.691406 C 341.453125 239.066406 342.152344 236.089844 341.898438 233.644531 C 342.246094 233.351562 342.574219 233.046875 342.859375 232.730469 C 345.667969 229.710938 345.503906 223.96875 345.503906 220.125 C 345.503906 218.40625 345.632812 216.449219 345.980469 214.777344 C 346.25 213.460938 346.78125 212.144531 346.566406 210.757812 C 346.449219 210.007812 346.238281 209.851562 346.566406 209.105469 C 346.839844 208.472656 347.160156 207.855469 347.375 207.210938 C 347.925781 205.550781 348.410156 203.253906 348.683594 201.546875 C 349.21875 198.144531 350.195312 195.609375 350.195312 192.113281 C 350.195312 190.90625 349.679688 189.351562 348.152344 189.542969 C 346.832031 189.707031 346.378906 191.109375 346.105469 192.1875 C 345.816406 193.347656 343.253906 204.445312 342.707031 205.550781 C 342.164062 206.640625 341.570312 207.210938 341.042969 206.980469 C 340.109375 206.582031 340.703125 204.71875 340.964844 203.457031 C 341.523438 200.808594 341.976562 198.191406 341.71875 195.433594 C 341.460938 192.65625 342.039062 190.042969 342.175781 187.277344 C 342.25 185.808594 341.988281 184.117188 341.703125 182.675781 C 341.445312 181.378906 339.9375 180.441406 338.640625 181.179688 C 337.359375 181.90625 337.335938 184.738281 337.335938 186.011719 C 337.335938 187.4375 336.808594 189.777344 336.808594 191.203125 C 336.808594 193.9375 336.863281 195.242188 336.203125 197.847656 C 335.863281 199.171875 335.957031 201.464844 335.824219 202.832031 C 335.714844 203.980469 335.777344 204.609375 334.402344 204.324219 C 332.957031 204.019531 332.257812 203.21875 332.34375 201.777344 C 332.46875 199.691406 332.398438 184.554688 332.121094 182.667969 C 331.902344 181.167969 332.039062 179.582031 330.53125 178.765625 C 329.207031 178.046875 327.671875 177.929688 326.972656 179.351562 C 326.234375 180.851562 326.15625 181.851562 326.367188 183.425781 C 326.554688 184.8125 326.167969 186.816406 326.367188 188.183594 C 326.8125 191.238281 326.671875 194.191406 326.671875 197.320312 C 326.671875 198.933594 328.304688 203.898438 326.21875 204.417969 C 324.492188 204.84375 323.820312 201.386719 323.648438 200.265625 C 323.347656 198.347656 320.898438 188.363281 320.519531 187.660156 C 320.136719 186.945312 319.84375 186.113281 319.335938 185.449219 C 318.429688 184.257812 316.460938 183.5 315.191406 184.785156 C 314.144531 185.847656 314.46875 188.140625 314.796875 189.542969 C 315.566406 192.828125 316.835938 195.804688 317.742188 199.054688 C 318.128906 200.4375 320.101562 204.785156 320.015625 206.15625 C 319.867188 208.40625 320.707031 217.257812 320.148438 218.382812 C 319.539062 219.609375 318.761719 221.089844 317.371094 221.480469 C 314.433594 222.292969 312.765625 220.125 310.734375 218.382812 C 307.914062 215.96875 305.390625 213.695312 302.464844 214.308594 C 299.914062 214.84375 299.9375 217.105469 301.558594 218.765625 C 303.695312 220.949219 305.71875 222.539062 308.140625 224.503906 " fill-opacity="1" fill-rule="nonzero"/></g><g clip-path="url(#32473f21f2)"><path fill="#5ce1e6" d="M 45.695312 224.503906 C 46.933594 225.503906 51.472656 228.699219 52.121094 229.386719 C 53.003906 230.320312 53.816406 230.984375 54.832031 231.769531 C 55.8125 232.527344 56.699219 233.3125 57.851562 233.804688 C 58.214844 233.960938 58.570312 234.113281 58.925781 234.265625 C 59.265625 237.316406 59.273438 240.9375 58.828125 243.820312 C 58.609375 245.25 58.613281 246.574219 58.199219 247.945312 C 57.996094 248.621094 57.171875 263.613281 56.496094 276.460938 L 79.84375 276.460938 C 79.53125 262.523438 79.144531 245.320312 79.085938 242.691406 C 79.007812 239.066406 79.707031 236.089844 79.453125 233.644531 C 79.800781 233.351562 80.125 233.046875 80.414062 232.730469 C 83.21875 229.710938 83.058594 223.96875 83.058594 220.125 C 83.058594 218.40625 83.1875 216.449219 83.535156 214.777344 C 83.804688 213.460938 84.335938 212.144531 84.121094 210.757812 C 84.003906 210.007812 83.792969 209.851562 84.121094 209.105469 C 84.394531 208.472656 84.714844 207.855469 84.929688 207.210938 C 85.476562 205.550781 85.964844 203.253906 86.234375 201.546875 C 86.773438 198.144531 87.75 195.609375 87.75 192.113281 C 87.75 190.90625 87.234375 189.351562 85.707031 189.542969 C 84.386719 189.707031 83.933594 191.109375 83.660156 192.1875 C 83.375 193.347656 80.808594 204.445312 80.261719 205.550781 C 79.714844 206.640625 79.125 207.210938 78.597656 206.980469 C 77.664062 206.582031 78.253906 204.71875 78.519531 203.457031 C 79.078125 200.808594 79.527344 198.191406 79.273438 195.433594 C 79.015625 192.65625 79.59375 190.042969 79.734375 187.277344 C 79.804688 185.808594 79.539062 184.117188 79.257812 182.675781 C 79 181.378906 77.492188 180.441406 76.191406 181.179688 C 74.914062 181.90625 74.890625 184.738281 74.890625 186.011719 C 74.890625 187.4375 74.363281 189.777344 74.363281 191.203125 C 74.363281 193.9375 74.417969 195.242188 73.757812 197.847656 C 73.417969 199.171875 73.507812 201.464844 73.378906 202.832031 C 73.265625 203.980469 73.332031 204.609375 71.957031 204.324219 C 70.511719 204.019531 69.8125 203.21875 69.898438 201.777344 C 70.023438 199.691406 69.953125 184.554688 69.675781 182.667969 C 69.453125 181.167969 69.59375 179.582031 68.082031 178.765625 C 66.757812 178.046875 65.226562 177.929688 64.527344 179.351562 C 63.789062 180.851562 63.710938 181.851562 63.921875 183.425781 C 64.109375 184.8125 63.722656 186.816406 63.921875 188.183594 C 64.363281 191.238281 64.226562 194.191406 64.226562 197.320312 C 64.226562 198.933594 65.859375 203.898438 63.773438 204.417969 C 62.046875 204.84375 61.375 201.386719 61.203125 200.265625 C 60.898438 198.347656 58.453125 188.363281 58.074219 187.660156 C 57.691406 186.945312 57.398438 186.113281 56.890625 185.449219 C 55.984375 184.257812 54.015625 183.5 52.746094 184.785156 C 51.699219 185.847656 52.023438 188.140625 52.351562 189.542969 C 53.121094 192.828125 54.390625 195.804688 55.300781 199.054688 C 55.683594 200.4375 57.65625 204.785156 57.566406 206.15625 C 57.421875 208.40625 58.261719 217.257812 57.703125 218.382812 C 57.089844 219.609375 56.316406 221.089844 54.921875 221.480469 C 51.988281 222.292969 50.316406 220.125 48.285156 218.382812 C 45.46875 215.96875 42.945312 213.695312 40.019531 214.308594 C 37.46875 214.84375 37.492188 217.105469 39.113281 218.765625 C 41.25 220.949219 43.273438 222.539062 45.695312 224.503906 " fill-opacity="1" fill-rule="nonzero"/></g><g clip-path="url(#3aa88093d8)"><path fill="#5ce1e6" d="M 239.085938 192.300781 C 240.324219 193.308594 244.863281 196.5 245.515625 197.1875 C 246.394531 198.128906 247.207031 198.789062 248.222656 199.570312 C 249.203125 200.332031 250.09375 201.121094 251.242188 201.609375 C 251.609375 201.765625 251.960938 201.914062 252.316406 202.066406 C 252.65625 205.117188 252.664062 208.742188 252.21875 211.625 C 252 213.058594 252.003906 214.378906 251.589844 215.746094 C 251.378906 216.449219 251.46875 258.226562 250.976562 276.460938 L 274.421875 276.460938 C 273.917969 257.390625 272.539062 213.207031 272.476562 210.496094 C 272.398438 206.867188 273.097656 203.898438 272.84375 201.449219 C 273.191406 201.152344 273.515625 200.847656 273.804688 200.535156 C 276.609375 197.519531 276.449219 191.773438 276.449219 187.925781 C 276.449219 186.207031 276.578125 184.25 276.925781 182.578125 C 277.195312 181.261719 277.726562 179.949219 277.511719 178.566406 C 277.394531 177.8125 277.183594 177.652344 277.511719 176.90625 C 277.785156 176.273438 278.105469 175.660156 278.320312 175.015625 C 278.871094 173.355469 279.355469 171.058594 279.625 169.347656 C 280.164062 165.949219 281.140625 163.414062 281.140625 159.914062 C 281.140625 158.707031 280.625 157.152344 279.097656 157.34375 C 277.777344 157.515625 277.324219 158.910156 277.050781 159.988281 C 276.765625 161.148438 274.199219 172.25 273.652344 173.355469 C 273.105469 174.445312 272.515625 175.015625 271.988281 174.785156 C 271.054688 174.382812 271.644531 172.523438 271.910156 171.257812 C 272.472656 168.609375 272.917969 165.996094 272.664062 163.234375 C 272.40625 160.457031 272.984375 157.84375 273.125 155.082031 C 273.195312 153.609375 272.929688 151.917969 272.648438 150.476562 C 272.390625 149.183594 270.882812 148.25 269.582031 148.984375 C 268.304688 149.710938 268.28125 152.539062 268.28125 153.816406 C 268.28125 155.242188 267.753906 157.582031 267.753906 159.007812 C 267.753906 161.742188 267.804688 163.042969 267.148438 165.652344 C 266.808594 166.96875 266.898438 169.273438 266.769531 170.636719 C 266.65625 171.785156 266.722656 172.410156 265.347656 172.125 C 263.902344 171.824219 263.203125 171.023438 263.289062 169.582031 C 263.417969 167.496094 263.34375 152.355469 263.066406 150.46875 C 262.84375 148.972656 262.980469 147.390625 261.472656 146.570312 C 260.152344 145.851562 258.617188 145.734375 257.917969 147.152344 C 257.179688 148.65625 257.101562 149.65625 257.3125 151.226562 C 257.5 152.617188 257.113281 154.621094 257.3125 155.988281 C 257.757812 159.042969 257.617188 161.996094 257.617188 165.121094 C 257.617188 166.738281 259.25 171.703125 257.164062 172.222656 C 255.4375 172.648438 254.765625 169.195312 254.59375 168.066406 C 254.292969 166.148438 251.84375 156.167969 251.46875 155.464844 C 251.082031 154.75 250.789062 153.917969 250.28125 153.253906 C 249.375 152.0625 247.40625 151.308594 246.136719 152.589844 C 245.089844 153.648438 245.414062 155.945312 245.742188 157.34375 C 246.511719 160.628906 247.78125 163.605469 248.691406 166.855469 C 249.074219 168.238281 251.046875 172.589844 250.957031 173.953125 C 250.8125 176.210938 251.65625 185.0625 251.09375 186.191406 C 250.484375 187.414062 249.707031 188.894531 248.3125 189.28125 C 245.378906 190.097656 243.707031 187.925781 241.675781 186.191406 C 238.859375 183.773438 236.332031 181.5 233.410156 182.113281 C 230.859375 182.644531 230.882812 184.90625 232.503906 186.5625 C 234.640625 188.753906 236.664062 190.34375 239.085938 192.300781 " fill-opacity="1" fill-rule="nonzero"/></g><g clip-path="url(#66e4492cd3)"><path fill="#5ce1e6" d="M 155.675781 192.300781 C 156.914062 193.308594 161.453125 196.5 162.105469 197.1875 C 162.988281 198.128906 163.796875 198.789062 164.816406 199.570312 C 165.796875 200.332031 166.683594 201.121094 167.835938 201.609375 C 168.203125 201.765625 168.550781 201.914062 168.910156 202.066406 C 169.246094 205.117188 169.253906 208.742188 168.8125 211.625 C 168.59375 213.058594 168.597656 214.378906 168.179688 215.746094 C 167.96875 216.449219 168.0625 258.226562 167.566406 276.460938 L 191.011719 276.460938 C 190.511719 257.390625 189.128906 213.207031 189.066406 210.496094 C 188.988281 206.867188 189.691406 203.898438 189.4375 201.449219 C 189.78125 201.152344 190.105469 200.847656 190.394531 200.535156 C 193.203125 197.519531 193.039062 191.773438 193.042969 187.925781 C 193.042969 186.207031 193.167969 184.25 193.515625 182.578125 C 193.785156 181.261719 194.316406 179.949219 194.101562 178.566406 C 193.984375 177.8125 193.773438 177.652344 194.101562 176.90625 C 194.375 176.273438 194.699219 175.660156 194.910156 175.015625 C 195.460938 173.355469 195.949219 171.058594 196.21875 169.347656 C 196.753906 165.949219 197.730469 163.414062 197.730469 159.914062 C 197.730469 158.707031 197.21875 157.152344 195.691406 157.34375 C 194.367188 157.515625 193.914062 158.910156 193.640625 159.988281 C 193.355469 161.148438 190.792969 172.25 190.242188 173.355469 C 189.699219 174.445312 189.109375 175.015625 188.578125 174.785156 C 187.644531 174.382812 188.238281 172.523438 188.503906 171.257812 C 189.0625 168.609375 189.511719 165.996094 189.253906 163.234375 C 188.996094 160.457031 189.574219 157.84375 189.714844 155.082031 C 189.789062 153.609375 189.523438 151.917969 189.238281 150.476562 C 188.984375 149.183594 187.472656 148.25 186.175781 148.984375 C 184.894531 149.710938 184.871094 152.539062 184.871094 153.816406 C 184.871094 155.242188 184.34375 157.582031 184.34375 159.007812 C 184.34375 161.742188 184.398438 163.042969 183.738281 165.652344 C 183.402344 166.96875 183.492188 169.273438 183.359375 170.636719 C 183.25 171.785156 183.3125 172.410156 181.9375 172.125 C 180.492188 171.824219 179.792969 171.023438 179.878906 169.582031 C 180.007812 167.496094 179.933594 152.355469 179.660156 150.46875 C 179.4375 148.972656 179.574219 147.390625 178.066406 146.570312 C 176.742188 145.851562 175.207031 145.734375 174.507812 147.152344 C 173.769531 148.65625 173.691406 149.65625 173.902344 151.226562 C 174.089844 152.617188 173.707031 154.621094 173.902344 155.988281 C 174.347656 159.042969 174.207031 161.996094 174.207031 165.121094 C 174.207031 166.738281 175.839844 171.703125 173.757812 172.222656 C 172.03125 172.648438 171.355469 169.195312 171.183594 168.066406 C 170.886719 166.148438 168.433594 156.167969 168.058594 155.464844 C 167.671875 154.75 167.382812 153.917969 166.871094 153.253906 C 165.964844 152.0625 163.996094 151.308594 162.726562 152.589844 C 161.679688 153.648438 162.003906 155.945312 162.332031 157.34375 C 163.101562 160.628906 164.375 163.605469 165.285156 166.855469 C 165.667969 168.238281 167.640625 172.589844 167.550781 173.953125 C 167.40625 176.210938 168.25 185.0625 167.683594 186.191406 C 167.074219 187.414062 166.296875 188.894531 164.902344 189.28125 C 161.972656 190.097656 160.300781 187.925781 158.269531 186.191406 C 155.449219 183.773438 152.925781 181.5 150.003906 182.113281 C 147.449219 182.644531 147.476562 184.90625 149.09375 186.5625 C 151.234375 188.753906 153.257812 190.34375 155.675781 192.300781 " fill-opacity="1" fill-rule="nonzero"/></g><g clip-path="url(#f38b050da9)"><path fill="#5ce1e6" d="M 78.226562 179.835938 C 79.738281 181.066406 85.285156 184.96875 86.082031 185.808594 C 87.160156 186.953125 88.15625 187.765625 89.394531 188.726562 C 90.59375 189.652344 91.679688 190.613281 93.089844 191.214844 C 93.535156 191.402344 93.96875 191.585938 94.402344 191.773438 C 94.8125 195.503906 94.824219 199.933594 94.28125 203.457031 C 94.015625 205.203125 94.015625 206.824219 93.511719 208.496094 C 93.144531 209.714844 90.917969 260.089844 90.203125 276.460938 L 120.105469 276.460938 C 119.875 259.65625 119.148438 206.71875 119.042969 202.074219 C 118.945312 197.640625 119.800781 194.007812 119.492188 191.015625 C 119.917969 190.65625 120.316406 190.28125 120.667969 189.902344 C 124.09375 186.214844 123.898438 179.1875 123.902344 174.484375 C 123.902344 172.386719 124.054688 169.992188 124.476562 167.953125 C 124.8125 166.339844 125.460938 164.734375 125.191406 163.042969 C 125.050781 162.125 124.796875 161.929688 125.191406 161.015625 C 125.527344 160.242188 125.921875 159.492188 126.183594 158.703125 C 126.859375 156.671875 127.457031 153.867188 127.78125 151.78125 C 128.4375 147.621094 129.632812 144.519531 129.632812 140.246094 C 129.632812 138.773438 129.003906 136.867188 127.132812 137.105469 C 125.523438 137.3125 124.964844 139.023438 124.632812 140.335938 C 124.28125 141.753906 121.152344 155.324219 120.476562 156.671875 C 119.816406 158.003906 119.09375 158.703125 118.445312 158.421875 C 117.304688 157.933594 118.027344 155.65625 118.355469 154.113281 C 119.035156 150.882812 119.585938 147.679688 119.273438 144.304688 C 118.957031 140.914062 119.660156 137.714844 119.832031 134.335938 C 119.921875 132.542969 119.597656 130.476562 119.25 128.710938 C 118.9375 127.128906 117.09375 125.984375 115.507812 126.886719 C 113.945312 127.773438 113.914062 131.230469 113.914062 132.792969 C 113.914062 134.539062 113.265625 137.394531 113.265625 139.136719 C 113.265625 142.484375 113.335938 144.074219 112.527344 147.261719 C 112.117188 148.875 112.226562 151.683594 112.066406 153.347656 C 111.929688 154.753906 112.007812 155.523438 110.328125 155.171875 C 108.558594 154.804688 107.707031 153.820312 107.8125 152.0625 C 107.96875 149.511719 107.875 131.011719 107.539062 128.703125 C 107.269531 126.871094 107.4375 124.933594 105.589844 123.933594 C 103.980469 123.058594 102.101562 122.914062 101.25 124.648438 C 100.34375 126.488281 100.246094 127.703125 100.507812 129.628906 C 100.734375 131.324219 100.265625 133.777344 100.507812 135.445312 C 101.046875 139.179688 100.875 142.789062 100.875 146.613281 C 100.875 148.582031 102.875 154.660156 100.328125 155.285156 C 98.214844 155.8125 97.394531 151.589844 97.179688 150.214844 C 96.816406 147.867188 93.824219 135.667969 93.359375 134.804688 C 92.890625 133.933594 92.535156 132.914062 91.914062 132.105469 C 90.804688 130.644531 88.394531 129.722656 86.847656 131.292969 C 85.566406 132.585938 85.960938 135.390625 86.363281 137.105469 C 87.300781 141.125 88.855469 144.761719 89.96875 148.734375 C 90.4375 150.425781 92.847656 155.742188 92.742188 157.410156 C 92.566406 160.164062 93.59375 170.984375 92.902344 172.363281 C 92.15625 173.859375 91.210938 175.667969 89.507812 176.144531 C 85.917969 177.144531 83.878906 174.488281 81.394531 172.363281 C 77.949219 169.410156 74.863281 166.632812 71.289062 167.378906 C 68.167969 168.03125 68.203125 170.796875 70.183594 172.824219 C 72.792969 175.5 75.265625 177.4375 78.226562 179.835938 " fill-opacity="1" fill-rule="nonzero"/></g><g clip-path="url(#ba7786bf1c)"><path fill="#5ce1e6" d="M 169.101562 179.835938 C 170.617188 181.066406 176.164062 184.96875 176.957031 185.808594 C 178.039062 186.953125 179.03125 187.765625 180.269531 188.726562 C 181.472656 189.652344 182.558594 190.613281 183.964844 191.214844 C 184.410156 191.402344 184.84375 191.585938 185.28125 191.773438 C 185.6875 195.503906 185.703125 199.933594 185.160156 203.457031 C 184.886719 205.203125 184.890625 206.824219 184.386719 208.496094 C 184.023438 209.714844 182.601562 260.089844 182.152344 276.460938 L 212.054688 276.460938 C 211.566406 259.65625 210.023438 206.71875 209.921875 202.074219 C 209.824219 197.640625 210.675781 194.007812 210.371094 191.015625 C 210.792969 190.65625 211.1875 190.28125 211.542969 189.902344 C 214.972656 186.214844 214.777344 179.1875 214.777344 174.484375 C 214.777344 172.386719 214.929688 169.992188 215.355469 167.953125 C 215.691406 166.339844 216.335938 164.734375 216.070312 163.042969 C 215.925781 162.125 215.671875 161.929688 216.070312 161.015625 C 216.40625 160.242188 216.800781 159.492188 217.0625 158.703125 C 217.734375 156.671875 218.328125 153.867188 218.660156 151.78125 C 219.3125 147.621094 220.507812 144.519531 220.507812 140.246094 C 220.507812 138.773438 219.882812 136.867188 218.011719 137.105469 C 216.398438 137.3125 215.839844 139.023438 215.511719 140.335938 C 215.15625 141.753906 212.027344 155.324219 211.355469 156.671875 C 210.691406 158.003906 209.96875 158.703125 209.320312 158.421875 C 208.183594 157.933594 208.902344 155.65625 209.226562 154.113281 C 209.910156 150.882812 210.464844 147.679688 210.148438 144.304688 C 209.835938 140.914062 210.539062 137.714844 210.710938 134.335938 C 210.796875 132.542969 210.472656 130.476562 210.128906 128.710938 C 209.8125 127.128906 207.96875 125.984375 206.382812 126.886719 C 204.816406 127.773438 204.792969 131.230469 204.792969 132.792969 C 204.792969 134.539062 204.144531 137.394531 204.144531 139.136719 C 204.144531 142.484375 204.210938 144.074219 203.402344 147.261719 C 202.992188 148.875 203.105469 151.683594 202.941406 153.347656 C 202.804688 154.753906 202.882812 155.523438 201.203125 155.171875 C 199.4375 154.804688 198.582031 153.820312 198.6875 152.0625 C 198.84375 149.511719 198.753906 131.011719 198.417969 128.703125 C 198.144531 126.871094 198.316406 124.933594 196.46875 123.933594 C 194.851562 123.058594 192.980469 122.914062 192.121094 124.648438 C 191.21875 126.488281 191.125 127.703125 191.382812 129.628906 C 191.613281 131.324219 191.140625 133.777344 191.382812 135.445312 C 191.925781 139.179688 191.753906 142.789062 191.753906 146.613281 C 191.753906 148.582031 193.75 154.660156 191.203125 155.285156 C 189.089844 155.8125 188.273438 151.589844 188.058594 150.214844 C 187.691406 147.867188 184.703125 135.667969 184.238281 134.804688 C 183.769531 133.933594 183.414062 132.914062 182.789062 132.105469 C 181.679688 130.644531 179.273438 129.722656 177.722656 131.292969 C 176.441406 132.585938 176.835938 135.390625 177.238281 137.105469 C 178.179688 141.125 179.734375 144.761719 180.84375 148.734375 C 181.316406 150.425781 183.726562 155.742188 183.617188 157.410156 C 183.441406 160.164062 184.46875 170.984375 183.78125 172.363281 C 183.035156 173.859375 182.085938 175.667969 180.382812 176.144531 C 176.796875 177.144531 174.753906 174.488281 172.269531 172.363281 C 168.824219 169.410156 165.742188 166.632812 162.167969 167.378906 C 159.046875 168.03125 159.078125 170.796875 161.058594 172.824219 C 163.671875 175.5 166.144531 177.4375 169.101562 179.835938 " fill-opacity="1" fill-rule="nonzero"/></g><g clip-path="url(#b1c93b3da5)"><path fill="#5ce1e6" d="M 265.679688 179.835938 C 267.195312 181.066406 272.742188 184.96875 273.539062 185.808594 C 274.617188 186.953125 275.609375 187.765625 276.851562 188.726562 C 278.050781 189.652344 279.136719 190.613281 280.546875 191.214844 C 280.988281 191.402344 281.421875 191.585938 281.855469 191.773438 C 282.269531 195.503906 282.28125 199.933594 281.734375 203.457031 C 281.46875 205.203125 281.472656 206.824219 280.964844 208.496094 C 280.597656 209.714844 278.582031 260.089844 277.933594 276.460938 L 307.839844 276.460938 C 307.542969 259.65625 306.601562 206.71875 306.5 202.074219 C 306.402344 197.640625 307.257812 194.007812 306.949219 191.015625 C 307.371094 190.65625 307.769531 190.28125 308.125 189.902344 C 311.554688 186.214844 311.351562 179.1875 311.355469 174.484375 C 311.355469 172.386719 311.511719 169.992188 311.933594 167.953125 C 312.265625 166.339844 312.914062 164.734375 312.652344 163.042969 C 312.507812 162.125 312.25 161.929688 312.652344 161.015625 C 312.984375 160.242188 313.378906 159.492188 313.640625 158.703125 C 314.3125 156.671875 314.910156 153.867188 315.238281 151.78125 C 315.894531 147.621094 317.089844 144.519531 317.089844 140.246094 C 317.089844 138.773438 316.460938 136.867188 314.59375 137.105469 C 312.980469 137.3125 312.421875 139.023438 312.09375 140.335938 C 311.738281 141.753906 308.605469 155.324219 307.933594 156.671875 C 307.269531 158.003906 306.546875 158.703125 305.902344 158.421875 C 304.761719 157.933594 305.484375 155.65625 305.808594 154.113281 C 306.492188 150.882812 307.039062 147.679688 306.730469 144.304688 C 306.410156 140.914062 307.117188 137.714844 307.289062 134.335938 C 307.378906 132.542969 307.054688 130.476562 306.707031 128.710938 C 306.394531 127.128906 304.550781 125.984375 302.960938 126.886719 C 301.398438 127.773438 301.371094 131.230469 301.371094 132.792969 C 301.371094 134.539062 300.722656 137.394531 300.722656 139.136719 C 300.722656 142.484375 300.792969 144.074219 299.984375 147.261719 C 299.570312 148.875 299.679688 151.683594 299.519531 153.347656 C 299.382812 154.753906 299.464844 155.523438 297.785156 155.171875 C 296.015625 154.804688 295.160156 153.820312 295.269531 152.0625 C 295.425781 149.511719 295.332031 131.011719 294.992188 128.703125 C 294.726562 126.871094 294.894531 124.933594 293.050781 123.933594 C 291.433594 123.058594 289.554688 122.914062 288.703125 124.648438 C 287.800781 126.488281 287.703125 127.703125 287.964844 129.628906 C 288.191406 131.324219 287.71875 133.777344 287.964844 135.445312 C 288.503906 139.179688 288.332031 142.789062 288.332031 146.613281 C 288.332031 148.582031 290.328125 154.660156 287.78125 155.285156 C 285.671875 155.8125 284.847656 151.589844 284.636719 150.214844 C 284.273438 147.867188 281.28125 135.667969 280.816406 134.804688 C 280.34375 133.933594 279.988281 132.914062 279.371094 132.105469 C 278.257812 130.644531 275.851562 129.722656 274.300781 131.292969 C 273.019531 132.585938 273.414062 135.390625 273.820312 137.105469 C 274.757812 141.125 276.316406 144.761719 277.421875 148.734375 C 277.894531 150.425781 280.304688 155.742188 280.195312 157.410156 C 280.019531 160.164062 281.046875 170.984375 280.359375 172.363281 C 279.613281 173.859375 278.664062 175.667969 276.960938 176.144531 C 273.375 177.144531 271.332031 174.488281 268.851562 172.363281 C 265.402344 169.410156 262.320312 166.632812 258.75 167.378906 C 255.625 168.03125 255.65625 170.796875 257.636719 172.824219 C 260.25 175.5 262.722656 177.4375 265.679688 179.835938 " fill-opacity="1" fill-rule="nonzero"/></g><g clip-path="url(#9fa3f27029)"><path fill="#5ce1e6" d="M 130.792969 233.863281 C 132.03125 234.871094 136.570312 238.058594 137.222656 238.75 C 138.105469 239.6875 138.914062 240.347656 139.933594 241.132812 C 140.914062 241.890625 141.804688 242.675781 142.953125 243.171875 C 143.320312 243.324219 143.675781 243.472656 144.027344 243.628906 C 144.363281 246.675781 144.375 250.300781 143.933594 253.183594 C 143.710938 254.613281 143.710938 255.9375 143.300781 257.308594 C 143.144531 257.820312 142.628906 266.621094 142.097656 276.460938 L 164.734375 276.460938 C 164.480469 265.097656 164.234375 254.113281 164.1875 252.050781 C 164.109375 248.429688 164.808594 245.457031 164.554688 243.007812 C 164.898438 242.710938 165.226562 242.410156 165.519531 242.09375 C 168.320312 239.078125 168.15625 233.332031 168.15625 229.488281 C 168.15625 227.769531 168.285156 225.8125 168.632812 224.140625 C 168.902344 222.820312 169.4375 221.507812 169.21875 220.121094 C 169.101562 219.371094 168.894531 219.214844 169.21875 218.464844 C 169.492188 217.835938 169.816406 217.21875 170.027344 216.574219 C 170.582031 214.914062 171.070312 212.613281 171.335938 210.910156 C 171.871094 207.507812 172.847656 204.976562 172.847656 201.476562 C 172.847656 200.269531 172.332031 198.710938 170.808594 198.90625 C 169.484375 199.074219 169.03125 200.472656 168.761719 201.546875 C 168.472656 202.707031 165.910156 213.808594 165.359375 214.914062 C 164.816406 216.003906 164.226562 216.574219 163.699219 216.34375 C 162.765625 215.945312 163.355469 214.082031 163.621094 212.816406 C 164.179688 210.171875 164.632812 207.554688 164.375 204.796875 C 164.117188 202.019531 164.691406 199.402344 164.832031 196.640625 C 164.90625 195.171875 164.640625 193.476562 164.355469 192.039062 C 164.101562 190.742188 162.589844 189.804688 161.292969 190.546875 C 160.011719 191.269531 159.988281 194.101562 159.988281 195.375 C 159.988281 196.800781 159.460938 199.140625 159.460938 200.566406 C 159.460938 203.304688 159.519531 204.609375 158.855469 207.210938 C 158.519531 208.53125 158.609375 210.828125 158.476562 212.195312 C 158.367188 213.347656 158.429688 213.96875 157.054688 213.683594 C 155.609375 213.386719 154.910156 212.582031 154.996094 211.140625 C 155.125 209.054688 155.050781 193.914062 154.777344 192.03125 C 154.554688 190.53125 154.691406 188.945312 153.183594 188.128906 C 151.863281 187.410156 150.328125 187.292969 149.625 188.710938 C 148.886719 190.21875 148.808594 191.214844 149.019531 192.789062 C 149.210938 194.175781 148.824219 196.179688 149.019531 197.546875 C 149.464844 200.601562 149.324219 203.554688 149.324219 206.683594 C 149.324219 208.296875 150.957031 213.265625 148.875 213.78125 C 147.148438 214.207031 146.476562 210.753906 146.300781 209.625 C 146.003906 207.710938 143.554688 197.726562 143.175781 197.027344 C 142.789062 196.308594 142.5 195.476562 141.992188 194.816406 C 141.085938 193.617188 139.113281 192.863281 137.84375 194.144531 C 136.796875 195.207031 137.121094 197.5 137.449219 198.90625 C 138.21875 202.191406 139.492188 205.164062 140.402344 208.417969 C 140.785156 209.796875 142.757812 214.148438 142.671875 215.515625 C 142.523438 217.769531 143.367188 226.621094 142.800781 227.75 C 142.191406 228.972656 141.414062 230.453125 140.019531 230.84375 C 137.089844 231.660156 135.417969 229.488281 133.386719 227.75 C 130.566406 225.332031 128.042969 223.058594 125.121094 223.671875 C 122.566406 224.203125 122.59375 226.464844 124.210938 228.125 C 126.351562 230.3125 128.375 231.902344 130.792969 233.863281 " fill-opacity="1" fill-rule="nonzero"/></g><g clip-path="url(#485d68031f)"><path fill="#5ce1e6" d="M 219.917969 221.667969 C 221.152344 222.671875 225.691406 225.863281 226.34375 226.554688 C 227.226562 227.492188 228.039062 228.152344 229.050781 228.933594 C 230.035156 229.695312 230.925781 230.480469 232.074219 230.972656 C 232.4375 231.128906 232.792969 231.277344 233.148438 231.429688 C 233.484375 234.480469 233.496094 238.105469 233.050781 240.988281 C 232.828125 242.417969 232.832031 243.742188 232.421875 245.109375 C 232.148438 246.007812 230.792969 266.386719 230.136719 276.460938 L 254.320312 276.460938 C 254.019531 265.828125 253.382812 243.292969 253.308594 239.855469 C 253.226562 236.230469 253.925781 233.261719 253.675781 230.8125 C 254.019531 230.519531 254.34375 230.210938 254.636719 229.898438 C 257.441406 226.882812 257.277344 221.136719 257.277344 217.289062 C 257.277344 215.570312 257.40625 213.613281 257.753906 211.945312 C 258.023438 210.625 258.558594 209.3125 258.339844 207.929688 C 258.222656 207.175781 258.015625 207.015625 258.339844 206.269531 C 258.613281 205.640625 258.933594 205.023438 259.148438 204.378906 C 259.703125 202.714844 260.1875 200.417969 260.457031 198.710938 C 260.992188 195.3125 261.96875 192.777344 261.96875 189.277344 C 261.96875 188.070312 261.457031 186.515625 259.929688 186.707031 C 258.609375 186.878906 258.152344 188.273438 257.882812 189.351562 C 257.59375 190.511719 255.03125 201.613281 254.480469 202.714844 C 253.941406 203.804688 253.347656 204.378906 252.820312 204.148438 C 251.886719 203.746094 252.476562 201.882812 252.742188 200.625 C 253.300781 197.972656 253.75 195.359375 253.496094 192.601562 C 253.238281 189.824219 253.8125 187.207031 253.953125 184.441406 C 254.027344 182.972656 253.761719 181.285156 253.476562 179.839844 C 253.21875 178.546875 251.710938 177.609375 250.417969 178.347656 C 249.132812 179.074219 249.109375 181.902344 249.109375 183.175781 C 249.109375 184.605469 248.582031 186.945312 248.582031 188.371094 C 248.582031 191.105469 248.640625 192.410156 247.976562 195.011719 C 247.640625 196.335938 247.734375 198.632812 247.597656 200 C 247.488281 201.148438 247.550781 201.777344 246.175781 201.488281 C 244.730469 201.1875 244.03125 200.382812 244.117188 198.945312 C 244.246094 196.855469 244.171875 181.71875 243.894531 179.832031 C 243.675781 178.335938 243.8125 176.75 242.304688 175.933594 C 240.984375 175.214844 239.449219 175.09375 238.75 176.515625 C 238.007812 178.019531 237.933594 179.015625 238.140625 180.59375 C 238.328125 181.976562 237.945312 183.984375 238.140625 185.347656 C 238.585938 188.40625 238.445312 191.359375 238.445312 194.488281 C 238.445312 196.101562 240.078125 201.066406 237.996094 201.585938 C 236.269531 202.011719 235.597656 198.558594 235.421875 197.429688 C 235.125 195.511719 232.675781 185.53125 232.296875 184.828125 C 231.910156 184.113281 231.621094 183.28125 231.113281 182.617188 C 230.207031 181.421875 228.234375 180.667969 226.964844 181.953125 C 225.917969 183.011719 226.242188 185.308594 226.570312 186.707031 C 227.339844 189.996094 228.613281 192.972656 229.519531 196.222656 C 229.90625 197.605469 231.878906 201.953125 231.792969 203.320312 C 231.644531 205.574219 232.484375 214.425781 231.921875 215.554688 C 231.3125 216.773438 230.535156 218.257812 229.140625 218.644531 C 226.210938 219.464844 224.539062 217.292969 222.507812 215.554688 C 219.6875 213.136719 217.164062 210.859375 214.242188 211.472656 C 211.6875 212.007812 211.714844 214.269531 213.335938 215.929688 C 215.472656 218.117188 217.492188 219.703125 219.917969 221.667969 " fill-opacity="1" fill-rule="nonzero"/></g><g clip-path="url(#13810e6af2)"><path fill="#38b6ff" d="M 51.410156 195.582031 C 52.921875 196.8125 58.472656 200.714844 59.265625 201.554688 C 60.34375 202.699219 61.339844 203.511719 62.578125 204.472656 C 63.777344 205.394531 64.867188 206.359375 66.273438 206.960938 C 66.714844 207.148438 67.152344 207.332031 67.585938 207.515625 C 67.996094 211.25 68.007812 215.675781 67.464844 219.203125 C 67.199219 220.949219 67.199219 222.566406 66.695312 224.242188 C 66.335938 225.425781 64.421875 262.652344 63.71875 276.460938 L 93.542969 276.460938 C 93.222656 262.164062 92.328125 222.339844 92.226562 217.820312 C 92.128906 213.386719 92.988281 209.75 92.675781 206.761719 C 93.101562 206.40625 93.496094 206.027344 93.851562 205.648438 C 97.28125 201.960938 97.082031 194.933594 97.082031 190.230469 C 97.082031 188.128906 97.234375 185.738281 97.660156 183.699219 C 97.996094 182.085938 98.644531 180.480469 98.378906 178.789062 C 98.234375 177.871094 97.980469 177.675781 98.378906 176.761719 C 98.710938 175.988281 99.105469 175.238281 99.367188 174.445312 C 100.042969 172.417969 100.640625 169.613281 100.96875 167.527344 C 101.621094 163.367188 102.816406 160.265625 102.8125 155.988281 C 102.8125 154.519531 102.1875 152.613281 100.320312 152.851562 C 98.707031 153.058594 98.148438 154.769531 97.820312 156.082031 C 97.46875 157.496094 94.335938 171.070312 93.664062 172.417969 C 93 173.75 92.277344 174.445312 91.628906 174.167969 C 90.492188 173.679688 91.210938 171.402344 91.539062 169.859375 C 92.21875 166.625 92.769531 163.425781 92.457031 160.050781 C 92.140625 156.660156 92.847656 153.460938 93.015625 150.082031 C 93.105469 148.289062 92.78125 146.222656 92.433594 144.457031 C 92.125 142.875 90.277344 141.730469 88.691406 142.628906 C 87.128906 143.519531 87.097656 146.976562 87.097656 148.535156 C 87.097656 150.28125 86.453125 153.140625 86.453125 154.882812 C 86.453125 158.230469 86.519531 159.816406 85.710938 163.003906 C 85.300781 164.617188 85.410156 167.425781 85.246094 169.09375 C 85.113281 170.496094 85.191406 171.269531 83.511719 170.917969 C 81.742188 170.550781 80.886719 169.566406 80.996094 167.808594 C 81.152344 165.253906 81.0625 146.753906 80.722656 144.449219 C 80.457031 142.617188 80.621094 140.679688 78.777344 139.679688 C 77.164062 138.800781 75.285156 138.65625 74.433594 140.394531 C 73.527344 142.234375 73.429688 143.449219 73.691406 145.375 C 73.921875 147.070312 73.449219 149.523438 73.691406 151.191406 C 74.230469 154.925781 74.0625 158.535156 74.0625 162.359375 C 74.0625 164.328125 76.058594 170.40625 73.511719 171.03125 C 71.402344 171.558594 70.578125 167.335938 70.363281 165.957031 C 70 163.613281 67.007812 151.410156 66.546875 150.550781 C 66.074219 149.679688 65.71875 148.660156 65.097656 147.847656 C 63.984375 146.390625 61.578125 145.46875 60.027344 147.039062 C 58.75 148.332031 59.144531 151.136719 59.546875 152.851562 C 60.484375 156.867188 62.042969 160.503906 63.152344 164.480469 C 63.621094 166.167969 66.035156 171.488281 65.925781 173.15625 C 65.75 175.910156 66.777344 186.730469 66.085938 188.105469 C 65.339844 189.605469 64.394531 191.410156 62.691406 191.886719 C 59.101562 192.890625 57.0625 190.234375 54.578125 188.105469 C 51.132812 185.15625 48.046875 182.375 44.472656 183.125 C 41.351562 183.777344 41.386719 186.542969 43.367188 188.566406 C 45.976562 191.242188 48.449219 193.183594 51.410156 195.582031 " fill-opacity="1" fill-rule="nonzero"/></g><g clip-path="url(#0b8e5bcca5)"><path fill="#38b6ff" d="M 138.960938 195.582031 C 140.476562 196.8125 146.023438 200.714844 146.820312 201.554688 C 147.898438 202.699219 148.890625 203.511719 150.132812 204.472656 C 151.332031 205.394531 152.421875 206.359375 153.828125 206.960938 C 154.269531 207.148438 154.707031 207.332031 155.140625 207.515625 C 155.550781 211.25 155.5625 215.675781 155.019531 219.203125 C 154.75 220.949219 154.753906 222.566406 154.246094 224.242188 C 153.894531 225.425781 151.976562 262.652344 151.273438 276.460938 L 181.097656 276.460938 C 180.777344 262.164062 179.882812 222.339844 179.78125 217.820312 C 179.683594 213.386719 180.539062 209.75 180.230469 206.761719 C 180.652344 206.40625 181.050781 206.027344 181.40625 205.648438 C 184.835938 201.960938 184.636719 194.933594 184.636719 190.230469 C 184.636719 188.128906 184.792969 185.738281 185.214844 183.699219 C 185.546875 182.085938 186.195312 180.480469 185.933594 178.789062 C 185.789062 177.871094 185.535156 177.675781 185.933594 176.761719 C 186.265625 175.988281 186.660156 175.238281 186.921875 174.445312 C 187.59375 172.417969 188.191406 169.613281 188.519531 167.527344 C 189.175781 163.367188 190.371094 160.265625 190.371094 155.988281 C 190.371094 154.519531 189.742188 152.613281 187.875 152.851562 C 186.261719 153.058594 185.703125 154.769531 185.375 156.082031 C 185.019531 157.496094 181.886719 171.070312 181.21875 172.417969 C 180.550781 173.75 179.828125 174.445312 179.183594 174.167969 C 178.046875 173.679688 178.765625 171.402344 179.089844 169.859375 C 179.773438 166.625 180.324219 163.425781 180.011719 160.050781 C 179.695312 156.660156 180.398438 153.460938 180.570312 150.082031 C 180.660156 148.289062 180.335938 146.222656 179.988281 144.457031 C 179.675781 142.875 177.832031 141.730469 176.246094 142.628906 C 174.679688 143.519531 174.652344 146.976562 174.652344 148.535156 C 174.652344 150.28125 174.003906 153.140625 174.003906 154.882812 C 174.003906 158.230469 174.074219 159.816406 173.265625 163.003906 C 172.851562 164.617188 172.960938 167.425781 172.800781 169.09375 C 172.664062 170.496094 172.746094 171.269531 171.066406 170.917969 C 169.296875 170.550781 168.441406 169.566406 168.550781 167.808594 C 168.707031 165.253906 168.617188 146.753906 168.277344 144.449219 C 168.007812 142.617188 168.179688 140.679688 166.332031 139.679688 C 164.714844 138.800781 162.835938 138.65625 161.984375 140.394531 C 161.082031 142.234375 160.984375 143.449219 161.246094 145.375 C 161.472656 147.070312 161.003906 149.523438 161.246094 151.191406 C 161.785156 154.925781 161.617188 158.535156 161.617188 162.359375 C 161.617188 164.328125 163.609375 170.40625 161.0625 171.03125 C 158.953125 171.558594 158.128906 167.335938 157.917969 165.957031 C 157.554688 163.613281 154.5625 151.410156 154.097656 150.550781 C 153.628906 149.679688 153.269531 148.660156 152.652344 147.847656 C 151.539062 146.390625 149.132812 145.46875 147.582031 147.039062 C 146.300781 148.332031 146.699219 151.136719 147.101562 152.851562 C 148.039062 156.867188 149.597656 160.503906 150.703125 164.480469 C 151.175781 166.167969 153.589844 171.488281 153.476562 173.15625 C 153.300781 175.910156 154.328125 186.730469 153.640625 188.105469 C 152.894531 189.605469 151.945312 191.410156 150.242188 191.886719 C 146.660156 192.890625 144.613281 190.234375 142.132812 188.105469 C 138.683594 185.15625 135.601562 182.375 132.03125 183.125 C 128.90625 183.777344 128.9375 186.542969 130.917969 188.566406 C 133.53125 191.242188 136.003906 193.183594 138.960938 195.582031 " fill-opacity="1" fill-rule="nonzero"/></g><g clip-path="url(#d167cec1c7)"><path fill="#38b6ff" d="M 238.867188 195.582031 C 240.378906 196.8125 245.925781 200.714844 246.722656 201.554688 C 247.804688 202.699219 248.792969 203.511719 250.035156 204.472656 C 251.234375 205.394531 252.320312 206.359375 253.730469 206.960938 C 254.175781 207.148438 254.605469 207.332031 255.039062 207.515625 C 255.453125 211.25 255.460938 215.675781 254.921875 219.203125 C 254.652344 220.949219 254.65625 222.566406 254.152344 224.242188 C 253.792969 225.425781 251.875 262.652344 251.175781 276.460938 L 281 276.460938 C 280.679688 262.164062 279.785156 222.339844 279.683594 217.820312 C 279.585938 213.386719 280.441406 209.75 280.128906 206.761719 C 280.554688 206.40625 280.953125 206.027344 281.308594 205.648438 C 284.734375 201.960938 284.535156 194.933594 284.539062 190.230469 C 284.539062 188.128906 284.695312 185.738281 285.117188 183.699219 C 285.449219 182.085938 286.097656 180.480469 285.832031 178.789062 C 285.691406 177.871094 285.433594 177.675781 285.832031 176.761719 C 286.167969 175.988281 286.566406 175.238281 286.824219 174.445312 C 287.5 172.417969 288.09375 169.613281 288.421875 167.527344 C 289.078125 163.367188 290.273438 160.265625 290.273438 155.988281 C 290.273438 154.519531 289.644531 152.613281 287.777344 152.851562 C 286.164062 153.058594 285.605469 154.769531 285.277344 156.082031 C 284.921875 157.496094 281.789062 171.070312 281.117188 172.417969 C 280.453125 173.75 279.730469 174.445312 279.082031 174.167969 C 277.945312 173.679688 278.667969 171.402344 278.992188 169.859375 C 279.675781 166.625 280.222656 163.425781 279.914062 160.050781 C 279.59375 156.660156 280.300781 153.460938 280.472656 150.082031 C 280.5625 148.289062 280.238281 146.222656 279.890625 144.457031 C 279.578125 142.875 277.730469 141.730469 276.144531 142.628906 C 274.582031 143.519531 274.550781 146.976562 274.550781 148.535156 C 274.550781 150.28125 273.90625 153.140625 273.90625 154.882812 C 273.90625 158.230469 273.976562 159.816406 273.167969 163.003906 C 272.753906 164.617188 272.867188 167.425781 272.703125 169.09375 C 272.566406 170.496094 272.648438 171.269531 270.96875 170.917969 C 269.199219 170.550781 268.34375 169.566406 268.453125 167.808594 C 268.609375 165.253906 268.515625 146.753906 268.175781 144.449219 C 267.910156 142.617188 268.078125 140.679688 266.234375 139.679688 C 264.617188 138.800781 262.738281 138.65625 261.886719 140.394531 C 260.984375 142.234375 260.886719 143.449219 261.148438 145.375 C 261.375 147.070312 260.902344 149.523438 261.148438 151.191406 C 261.6875 154.925781 261.515625 158.535156 261.515625 162.359375 C 261.515625 164.328125 263.511719 170.40625 260.964844 171.03125 C 258.855469 171.558594 258.03125 167.335938 257.816406 165.957031 C 257.453125 163.613281 254.460938 151.410156 254 150.550781 C 253.527344 149.679688 253.171875 148.660156 252.554688 147.847656 C 251.445312 146.390625 249.035156 145.46875 247.484375 147.039062 C 246.203125 148.332031 246.597656 151.136719 247 152.851562 C 247.941406 156.867188 249.5 160.503906 250.605469 164.480469 C 251.078125 166.167969 253.488281 171.488281 253.382812 173.15625 C 253.203125 175.910156 254.230469 186.730469 253.542969 188.105469 C 252.796875 189.605469 251.847656 191.410156 250.144531 191.886719 C 246.558594 192.890625 244.515625 190.234375 242.035156 188.105469 C 238.585938 185.15625 235.503906 182.375 231.929688 183.125 C 228.808594 183.777344 228.839844 186.542969 230.820312 188.566406 C 233.429688 191.242188 235.90625 193.183594 238.867188 195.582031 " fill-opacity="1" fill-rule="nonzero"/></g><g clip-path="url(#597655c40a)"><path fill="#38b6ff" d="M 103.980469 249.609375 C 105.214844 250.617188 109.753906 253.804688 110.40625 254.496094 C 111.289062 255.433594 112.101562 256.09375 113.113281 256.878906 C 114.097656 257.636719 114.988281 258.421875 116.136719 258.917969 C 116.5 259.070312 116.855469 259.21875 117.210938 259.375 C 117.546875 262.421875 117.558594 266.046875 117.113281 268.929688 C 116.894531 270.359375 116.894531 271.683594 116.484375 273.054688 C 116.425781 273.238281 116.324219 274.488281 116.191406 276.460938 L 137.5625 276.460938 C 137.46875 272.066406 137.394531 268.824219 137.371094 267.796875 C 137.289062 264.171875 137.992188 261.199219 137.738281 258.753906 C 138.082031 258.457031 138.410156 258.152344 138.699219 257.839844 C 141.503906 254.824219 141.339844 249.078125 141.339844 245.230469 C 141.339844 243.515625 141.46875 241.558594 141.816406 239.886719 C 142.089844 238.566406 142.621094 237.253906 142.402344 235.867188 C 142.285156 235.117188 142.078125 234.957031 142.402344 234.207031 C 142.675781 233.582031 143 232.960938 143.210938 232.316406 C 143.765625 230.65625 144.253906 228.359375 144.519531 226.65625 C 145.054688 223.257812 146.03125 220.71875 146.03125 217.21875 C 146.03125 216.015625 145.519531 214.453125 143.988281 214.652344 C 142.671875 214.816406 142.214844 216.214844 141.949219 217.292969 C 141.65625 218.453125 139.09375 229.554688 138.542969 230.65625 C 138.003906 231.75 137.410156 232.316406 136.882812 232.089844 C 135.949219 231.691406 136.539062 229.828125 136.804688 228.5625 C 137.363281 225.917969 137.816406 223.300781 137.558594 220.539062 C 137.300781 217.765625 137.875 215.148438 138.015625 212.386719 C 138.089844 210.917969 137.824219 209.222656 137.539062 207.785156 C 137.28125 206.488281 135.773438 205.550781 134.480469 206.292969 C 133.195312 207.015625 133.171875 209.84375 133.171875 211.121094 C 133.171875 212.546875 132.644531 214.886719 132.644531 216.3125 C 132.644531 219.050781 132.703125 220.351562 132.039062 222.957031 C 131.703125 224.277344 131.796875 226.574219 131.660156 227.9375 C 131.550781 229.089844 131.613281 229.714844 130.238281 229.429688 C 128.792969 229.132812 128.09375 228.328125 128.179688 226.886719 C 128.3125 224.800781 128.234375 209.660156 127.960938 207.777344 C 127.738281 206.277344 127.875 204.695312 126.367188 203.875 C 125.046875 203.15625 123.511719 203.039062 122.8125 204.457031 C 122.070312 205.964844 121.996094 206.960938 122.207031 208.535156 C 122.390625 209.921875 122.007812 211.925781 122.207031 213.292969 C 122.648438 216.347656 122.507812 219.300781 122.507812 222.429688 C 122.507812 224.042969 124.140625 229.007812 122.058594 229.527344 C 120.332031 229.953125 119.660156 226.5 119.484375 225.371094 C 119.1875 223.457031 116.742188 213.472656 116.359375 212.769531 C 115.972656 212.054688 115.683594 211.222656 115.175781 210.558594 C 114.269531 209.363281 112.296875 208.613281 111.027344 209.894531 C 109.980469 210.953125 110.304688 213.246094 110.632812 214.652344 C 111.402344 217.933594 112.675781 220.910156 113.582031 224.160156 C 113.96875 225.542969 115.941406 229.894531 115.855469 231.261719 C 115.707031 233.515625 116.546875 242.367188 115.984375 243.496094 C 115.375 244.71875 114.597656 246.199219 113.207031 246.585938 C 110.273438 247.40625 108.601562 245.234375 106.570312 243.496094 C 103.75 241.078125 101.226562 238.804688 98.304688 239.417969 C 95.75 239.949219 95.777344 242.210938 97.398438 243.871094 C 99.535156 246.054688 101.554688 247.644531 103.980469 249.609375 " fill-opacity="1" fill-rule="nonzero"/></g><g clip-path="url(#a536ac7ed5)"><path fill="#38b6ff" d="M 193.101562 237.410156 C 194.339844 238.417969 198.875 241.605469 199.523438 242.296875 C 200.410156 243.238281 201.222656 243.894531 202.234375 244.679688 C 203.21875 245.441406 204.109375 246.226562 205.261719 246.71875 C 205.621094 246.875 205.976562 247.023438 206.332031 247.175781 C 206.667969 250.226562 206.679688 253.851562 206.234375 256.734375 C 206.011719 258.164062 206.015625 259.488281 205.605469 260.855469 C 205.46875 261.308594 205.054688 268.144531 204.59375 276.460938 L 226.960938 276.460938 C 226.734375 266.445312 226.53125 257.445312 226.492188 255.601562 C 226.410156 251.976562 227.109375 249.003906 226.859375 246.558594 C 227.203125 246.261719 227.527344 245.957031 227.820312 245.640625 C 230.625 242.628906 230.464844 236.882812 230.464844 233.035156 C 230.464844 231.316406 230.589844 229.359375 230.9375 227.6875 C 231.210938 226.371094 231.742188 225.054688 231.523438 223.671875 C 231.40625 222.921875 231.195312 222.761719 231.523438 222.015625 C 231.792969 221.382812 232.121094 220.769531 232.332031 220.121094 C 232.886719 218.460938 233.371094 216.164062 233.636719 214.457031 C 234.175781 211.058594 235.15625 208.523438 235.15625 205.023438 C 235.15625 203.816406 234.640625 202.261719 233.109375 202.453125 C 231.792969 202.621094 231.335938 204.019531 231.066406 205.09375 C 230.777344 206.257812 228.214844 217.359375 227.664062 218.460938 C 227.121094 219.550781 226.53125 220.121094 226.003906 219.894531 C 225.070312 219.492188 225.65625 217.628906 225.925781 216.367188 C 226.484375 213.71875 226.933594 211.105469 226.679688 208.34375 C 226.421875 205.570312 226.996094 202.953125 227.136719 200.1875 C 227.210938 198.71875 226.945312 197.027344 226.660156 195.585938 C 226.402344 194.289062 224.894531 193.355469 223.597656 194.09375 C 222.320312 194.820312 222.296875 197.648438 222.296875 198.921875 C 222.296875 200.347656 221.765625 202.691406 221.765625 204.117188 C 221.765625 206.851562 221.824219 208.152344 221.160156 210.757812 C 220.824219 212.078125 220.914062 214.378906 220.78125 215.742188 C 220.667969 216.894531 220.734375 217.519531 219.359375 217.234375 C 217.914062 216.933594 217.214844 216.132812 217.300781 214.691406 C 217.429688 212.605469 217.355469 197.464844 217.078125 195.578125 C 216.859375 194.078125 217 192.496094 215.484375 191.679688 C 214.164062 190.957031 212.632812 190.839844 211.933594 192.261719 C 211.191406 193.765625 211.117188 194.761719 211.328125 196.339844 C 211.515625 197.722656 211.128906 199.730469 211.328125 201.09375 C 211.773438 204.152344 211.632812 207.105469 211.632812 210.230469 C 211.632812 211.847656 213.265625 216.808594 211.179688 217.332031 C 209.453125 217.757812 208.78125 214.300781 208.605469 213.175781 C 208.308594 211.257812 205.859375 201.273438 205.480469 200.574219 C 205.097656 199.855469 204.804688 199.027344 204.296875 198.363281 C 203.390625 197.167969 201.417969 196.414062 200.148438 197.695312 C 199.101562 198.757812 199.425781 201.054688 199.753906 202.453125 C 200.523438 205.738281 201.796875 208.714844 202.703125 211.964844 C 203.089844 213.347656 205.0625 217.699219 204.976562 219.0625 C 204.828125 221.320312 205.667969 230.167969 205.105469 231.300781 C 204.496094 232.519531 203.71875 234 202.324219 234.390625 C 199.394531 235.207031 197.722656 233.039062 195.691406 231.300781 C 192.871094 228.882812 190.347656 226.605469 187.425781 227.21875 C 184.871094 227.753906 184.898438 230.015625 186.519531 231.671875 C 188.65625 233.863281 190.675781 235.449219 193.101562 237.410156 " fill-opacity="1" fill-rule="nonzero"/></g><g clip-path="url(#efd62a090a)"><path fill="#38b6ff" d="M 290.84375 241.71875 C 292.082031 242.722656 296.621094 245.914062 297.273438 246.601562 C 298.15625 247.539062 298.964844 248.199219 299.984375 248.984375 C 300.964844 249.742188 301.851562 250.53125 303.003906 251.019531 C 303.367188 251.179688 303.722656 251.332031 304.078125 251.480469 C 304.414062 254.53125 304.421875 258.15625 303.980469 261.039062 C 303.761719 262.46875 303.765625 263.792969 303.347656 265.160156 C 303.238281 265.53125 302.941406 270.207031 302.582031 276.460938 L 324.605469 276.460938 C 324.421875 268.273438 324.273438 261.480469 324.234375 259.90625 C 324.15625 256.28125 324.859375 253.308594 324.605469 250.863281 C 324.949219 250.570312 325.277344 250.261719 325.566406 249.949219 C 328.371094 246.929688 328.210938 241.1875 328.210938 237.339844 C 328.210938 235.621094 328.335938 233.664062 328.683594 231.996094 C 328.953125 230.671875 329.484375 229.363281 329.269531 227.976562 C 329.152344 227.222656 328.945312 227.066406 329.269531 226.320312 C 329.542969 225.6875 329.867188 225.074219 330.078125 224.429688 C 330.628906 222.765625 331.117188 220.46875 331.386719 218.765625 C 331.921875 215.359375 332.898438 212.824219 332.898438 209.324219 C 332.898438 208.121094 332.386719 206.570312 330.859375 206.757812 C 329.535156 206.925781 329.082031 208.324219 328.8125 209.402344 C 328.523438 210.5625 325.957031 221.664062 325.410156 222.765625 C 324.867188 223.859375 324.277344 224.429688 323.746094 224.199219 C 322.816406 223.792969 323.40625 221.933594 323.671875 220.671875 C 324.230469 218.027344 324.679688 215.410156 324.421875 212.648438 C 324.164062 209.871094 324.742188 207.261719 324.882812 204.492188 C 324.957031 203.023438 324.691406 201.335938 324.40625 199.890625 C 324.152344 198.597656 322.644531 197.660156 321.34375 198.394531 C 320.0625 199.125 320.039062 201.953125 320.039062 203.226562 C 320.039062 204.65625 319.511719 206.992188 319.511719 208.421875 C 319.511719 211.15625 319.566406 212.460938 318.90625 215.0625 C 318.570312 216.386719 318.660156 218.683594 318.527344 220.050781 C 318.417969 221.195312 318.480469 221.828125 317.109375 221.539062 C 315.660156 221.234375 314.960938 220.433594 315.046875 218.996094 C 315.175781 216.90625 315.101562 201.769531 314.828125 199.886719 C 314.605469 198.386719 314.742188 196.800781 313.234375 195.980469 C 311.910156 195.261719 310.375 195.144531 309.675781 196.566406 C 308.941406 198.066406 308.859375 199.066406 309.074219 200.644531 C 309.261719 202.03125 308.875 204.035156 309.074219 205.398438 C 309.515625 208.457031 309.375 211.410156 309.375 214.535156 C 309.375 216.152344 311.007812 221.117188 308.921875 221.632812 C 307.195312 222.058594 306.523438 218.605469 306.351562 217.480469 C 306.050781 215.5625 303.601562 205.582031 303.226562 204.875 C 302.839844 204.160156 302.550781 203.332031 302.042969 202.664062 C 301.132812 201.476562 299.164062 200.714844 297.894531 202.003906 C 296.847656 203.0625 297.171875 205.355469 297.5 206.757812 C 298.269531 210.042969 299.542969 213.023438 300.453125 216.273438 C 300.835938 217.65625 302.808594 222.003906 302.71875 223.371094 C 302.574219 225.621094 303.414062 234.476562 302.851562 235.601562 C 302.242188 236.824219 301.464844 238.304688 300.074219 238.695312 C 297.136719 239.511719 295.46875 237.34375 293.4375 235.601562 C 290.617188 233.1875 288.09375 230.910156 285.171875 231.523438 C 282.617188 232.058594 282.644531 234.324219 284.261719 235.976562 C 286.402344 238.164062 288.425781 239.753906 290.84375 241.71875 " fill-opacity="1" fill-rule="nonzero"/></g><g fill="#000000" fill-opacity="1"><g transform="translate(67.802414, 231.298362)"><g><path d="M 14.75 -0.28125 L 0.203125 -38.890625 L 13.546875 -39.15625 L 21.84375 -13.296875 L 22.0625 -13.296875 L 29.421875 -39.453125 L 42.171875 -39.703125 L 29.203125 -0.5625 Z M 14.75 -0.28125 "/></g></g></g><g fill="#000000" fill-opacity="1"><g transform="translate(174.947263, 245.330317)"><g><path d="M 19.15625 -39.5625 C 22.25 -39.5625 24.929688 -39.085938 27.203125 -38.140625 C 29.484375 -37.203125 31.21875 -35.929688 32.40625 -34.328125 C 33.59375 -32.734375 34.1875 -30.957031 34.1875 -29 C 34.1875 -27.03125 33.660156 -25.265625 32.609375 -23.703125 C 31.554688 -22.140625 30.203125 -21.039062 28.546875 -20.40625 L 28.546875 -20.171875 C 30.691406 -19.492188 32.359375 -18.316406 33.546875 -16.640625 C 34.734375 -14.960938 35.328125 -12.9375 35.328125 -10.5625 C 35.171875 -7.25 33.726562 -4.546875 31 -2.453125 C 28.269531 -0.367188 24.25 0.671875 18.9375 0.671875 C 15.28125 0.671875 12.207031 0.179688 9.71875 -0.796875 C 7.226562 -1.773438 5.378906 -3.109375 4.171875 -4.796875 C 2.972656 -6.492188 2.375 -8.398438 2.375 -10.515625 L 2.375 -11.703125 L 12.328125 -11.703125 C 12.328125 -8.609375 14.285156 -7.0625 18.203125 -7.0625 C 22.117188 -7.0625 24.078125 -8.796875 24.078125 -12.265625 C 24.078125 -13.578125 23.707031 -14.582031 22.96875 -15.28125 C 22.238281 -15.976562 21.289062 -16.328125 20.125 -16.328125 L 16 -16.328125 L 16 -23.28125 L 19.21875 -23.28125 C 20.382812 -23.28125 21.332031 -23.628906 22.0625 -24.328125 C 22.800781 -25.023438 23.171875 -26.035156 23.171875 -27.359375 C 23.171875 -28.597656 22.726562 -29.648438 21.84375 -30.515625 C 20.957031 -31.378906 19.742188 -31.8125 18.203125 -31.8125 C 16.578125 -31.8125 15.3125 -31.394531 14.40625 -30.5625 C 13.507812 -29.738281 13.0625 -28.722656 13.0625 -27.515625 L 3.609375 -27.515625 L 3.609375 -28.9375 C 3.609375 -30.894531 4.222656 -32.679688 5.453125 -34.296875 C 6.679688 -35.921875 8.472656 -37.203125 10.828125 -38.140625 C 13.179688 -39.085938 15.957031 -39.5625 19.15625 -39.5625 Z M 19.15625 -39.5625 "/></g></g></g><g fill="#000000" fill-opacity="1"><g transform="translate(250.842089, 232.049061)"><g><path d="M 33.390625 0 L 28.359375 -23.671875 L 28.140625 -23.671875 L 23.109375 0 L 9.375 0 L 0.28125 -38.875 L 13.28125 -38.875 L 17.734375 -16.84375 L 17.96875 -16.84375 L 22.375 -38.875 L 34.6875 -38.875 L 39.375 -16.84375 L 39.609375 -16.84375 L 43.78125 -38.875 L 56.21875 -38.875 L 47.125 0 Z M 33.390625 0 "/></g></g></g></svg>